<?xml version="1.0" encoding="utf-8"?>
<!-- Svg Vector Icons : http://www.onlinewebfonts.com/icon -->
<!DOCTYPE svg PUBLIC "-//W3C//DTD SVG 1.1//EN" "http://www.w3.org/Graphics/SVG/1.1/DTD/svg11.dtd">
<svg version="1.1" xmlns="http://www.w3.org/2000/svg" xmlns:xlink="http://www.w3.org/1999/xlink" x="0px" y="0px" viewBox="0 0 1000 1000" enable-background="new 0 0 1000 1000" xml:space="preserve">
<metadata> Svg Vector Icons : http://www.onlinewebfonts.com/icon </metadata>
<g><g><path d="M983.9,860.3l-281-281c-8.2-8.1-21.3-8.1-29.5,0l-7.6,7.6L533.6,454.6l89.3-89.3l16.2,16.2c8.1,8.2,21.3,8.2,29.5,0l83.8-83.8c8.1-8.1,8.1-21.3,0-29.5L500.3,16.1c-8.1-8.1-21.3-8.1-29.5,0l-83.8,83.8c-3.9,3.9-6.1,9.2-6.1,14.7c0,5.5,2.2,10.8,6.1,14.7l16.2,16.2L145.6,403.2L129.4,387c-3.9-3.9-9.2-6.1-14.7-6.1l0,0c-5.5,0-10.8,2.2-14.7,6.1l-83.8,83.9c-3.9,3.9-6.1,9.2-6.1,14.7c0,5.5,2.2,10.8,6.1,14.7l252.1,252.1c8.1,8.2,21.3,8.2,29.5,0l83.8-83.8c3.9-3.9,6.1-9.2,6.1-14.7c0-5.5-2.2-10.8-6.1-14.7l-16.2-16.2l89.3-89.3l132.2,132.2l-7.6,7.6c-3.9,3.9-6.1,9.2-6.1,14.7c0,5.5,2.2,10.8,6.1,14.7l281,281c3.9,3.9,9.2,6.1,14.7,6.1s10.8-2.2,14.7-6.1l94.1-94.2C992,881.6,992,868.4,983.9,860.3z"/></g><g></g><g></g><g></g><g></g><g></g><g></g><g></g><g></g><g></g><g></g><g></g><g></g><g></g><g></g><g></g></g>
</svg>